<svg xmlns="http://www.w3.org/2000/svg" xmlns:xlink="http://www.w3.org/1999/xlink"><symbol id="food_first_advantages"><path d="M37.743 23.3H2.257C.997 23.3 0 24.314 0 25.478v1.773c0 1.165.997 2.128 2.257 2.128h.525v.506c0 2.786 2.362 5.015 5.197 5.015h24.042c2.887 0 5.197-2.28 5.197-5.015v-.506h.525c1.207 0 2.257-.963 2.257-2.178v-1.773c0-1.114-.997-2.128-2.257-2.128Zm-2.047 6.585c0 1.925-1.628 3.495-3.622 3.495H7.927c-1.995 0-3.623-1.57-3.623-3.495v-.506h31.392v.506Zm2.73-2.684c0 .354-.316.658-.683.658H2.257c-.367 0-.682-.304-.682-.658v-1.773c0-.304.315-.608.682-.608h35.538c.368 0 .683.304.683.659V27.2h-.053ZM8.504 19.197l2.835 2.026 2.887-2.026 2.887 2.026L20 19.197l2.835 2.026 2.887-2.026 2.887 2.026 2.887-2.026 2.887 2.026 3.307-2.38-.892-1.216-2.415 1.672-2.887-2.026-2.887 2.026-2.887-2.026-2.887 2.026L20 17.273l-2.887 2.026-2.887-2.026-2.887 2.026-2.835-2.026-2.887 2.026-2.415-1.672-.945 1.216 3.36 2.38 2.887-2.026ZM37.218 15.753c0-.304.052-1.317 0-1.52C36.85 6.332 29.29 0 20 0S3.097 6.332 2.73 14.233v1.52h34.488ZM20 1.52c8.399 0 15.328 5.673 15.643 12.713H4.304C4.672 7.193 11.601 1.52 20 1.52Z" fill="#81B3D2"/><path d="M20 8.611c.58 0 1.05-.453 1.05-1.013 0-.56-.47-1.013-1.05-1.013-.58 0-1.05.454-1.05 1.013 0 .56.47 1.013 1.05 1.013ZM15.8 6.129c.58 0 1.05-.454 1.05-1.013 0-.56-.47-1.013-1.05-1.013-.58 0-1.05.453-1.05 1.013 0 .56.47 1.013 1.05 1.013ZM24.2 6.129c.58 0 1.05-.454 1.05-1.013 0-.56-.47-1.013-1.05-1.013-.58 0-1.05.453-1.05 1.013 0 .56.47 1.013 1.05 1.013Z" fill="#81B3D2"/></symbol><symbol id="housing_first_advantages"><path d="M15.402 33.22h8.353V21.06h-8.353V33.22Zm6.839-1.476h-5.325v-9.207h5.273v9.207h.052Z" fill="#81B3D2"/><path d="M37.904 20.043 39 18.975l-5.169-5.036V.203h-7.205v6.715L19.474 0 0 19.026l1.096 1.068 4.073-3.968v19.23H3.133v1.474h33.361v-1.475h-2.663v-19.28l4.073 3.968ZM28.14 1.73h4.124v10.733l-4.124-4.018V1.73Zm4.176 33.574H6.735V14.6L19.474 2.137 32.265 14.6v20.704h.052Z" fill="#81B3D2"/><path d="M15.558 13.837c0 2.187 1.828 3.968 4.02 3.968 2.245 0 4.073-1.78 4.073-3.968 0-2.188-1.828-3.917-4.073-3.917s-4.02 1.73-4.02 3.917Zm4.02-2.544c1.41 0 2.61 1.12 2.61 2.544 0 1.373-1.148 2.543-2.61 2.543-1.41 0-2.61-1.119-2.61-2.543 0-1.374 1.2-2.544 2.61-2.544ZM10.39 21.061H8.822v1.984h1.566v-1.984ZM13.47 21.061h-1.566v1.984h1.566v-1.984ZM10.39 24.113H8.822v1.984h1.566v-1.984ZM13.47 24.113h-1.566v1.984h1.566v-1.984ZM27.044 21.061h-1.566v1.984h1.566v-1.984ZM30.177 21.061H28.61v1.984h1.566v-1.984ZM27.044 24.113h-1.566v1.984h1.566v-1.984ZM30.177 24.113H28.61v1.984h1.566v-1.984Z" fill="#81B3D2"/></symbol><symbol id="htmlacademy"><path d="M13.6 0h-.1L0 1.4v24.7l13.5 8 13.4-8V1.4L13.6 0ZM25 12.1 13.5 5.3v-.1h-.1l-.1-.1v.1L1.9 12.1v-9l11.5-1.2L25 3.1v9ZM13.4 6.8l11.5 6.7-4.5 2.6-7.1-4.2v1.4l5.9 3.5-.9.5-5-3v1.4l3.8 2.3-.8.5-3-1.8v1.4l1.9 1.1-1.8 1.1L2 13.6l11.4-6.8ZM1.9 15.1l11.4 6.8v1l-7.9-4.7v1.4l8 4.8v1.1l-8-4.7v1.4l8 4.8 8.1-4.9v-5.2l3.4-2v10l-11.5 6.9L1.9 25v-9.9Z" fill="#000"/></symbol><symbol id="like-icon"><path opacity=".3" d="m12.964 3.78-.628 3.045-.627 2.625h9.096v2.205L17.773 18.9h-9.41V8.4l4.6-4.62ZM2.09 10.5v8.4-8.4ZM13.8 0 6.9 6.93c-.418.315-.627.84-.627 1.47v10.5c0 1.155.94 2.1 2.09 2.1h9.41c.836 0 1.568-.525 1.881-1.26l3.137-7.455c.104-.21.104-.525.104-.735v-2.1H23c0-1.155-.94-2.1-2.09-2.1h-6.587l1.045-4.83v-.315c0-.42-.209-.84-.418-1.155L13.8 0ZM4.182 8.4H0V21h4.182V8.4Z" fill="#000"/></symbol><symbol id="souvenirs_first_advantages"><path d="M30.578 11.206H18.184c6.908-3.444 7.467-5.622 7.213-6.838-.559-1.975-2.845-3.495-4.978-2.685-2.794 1.064-3.556 5.218-4.317 8.206-.966-3.04-1.88-6.889-4.064-8.864-.61-.557-1.524-1.114-2.895-1.013-2.032.203-4.927 2.684-3.708 5.47 1.117 2.685 4.825 4.407 7.314 5.775H1.422C.61 11.257 0 11.915 0 12.675v5.672c0 .811.66 1.419 1.422 1.419h.153V38h28.952V19.766h.05c.813 0 1.423-.659 1.423-1.418v-5.673c0-.81-.66-1.47-1.422-1.47ZM21.232 2.95c1.066-.152 2.489.658 2.641 1.62.203 1.368-1.676 2.634-2.54 3.192-1.27.86-2.489 1.316-3.657 2.026.407-1.874 1.27-6.534 3.556-6.838ZM9.752 7.914c-1.117-.76-3.25-2.23-3.2-3.9.051-1.824 2.896-3.293 4.42-1.925 1.93 1.671 2.844 5.571 3.555 8.306-1.625-.81-3.15-1.418-4.775-2.481ZM12.75 36.48H3.048V19.765h9.701V36.48Zm0-18.235H1.524v-5.52h11.225v5.52Zm5.08 18.235h-3.607V12.724h3.607V36.48Zm11.174 0h-9.65V19.765h9.701V36.48h-.05Zm1.473-18.235H19.352v-5.52h11.124v5.52Z" fill="#81B3D2"/></symbol></svg>